<svg width="86" height="86" viewBox="0 0 86 86" fill="none" xmlns="http://www.w3.org/2000/svg">
<path d="M77.6037 51.3134C82.2408 32.2332 70.5074 13.0125 51.3963 8.38286C32.2852 3.75319 13.0335 15.4677 8.39632 34.5479C3.75916 53.6281 15.4926 72.8488 34.6037 77.4785C53.7148 82.1081 72.9665 70.3937 77.6037 51.3134Z" fill="#37474F"/>
<path d="M20.2812 65.6228C21.2633 62.0828 22.1404 58.7897 23.1149 55.5191C23.4297 54.4563 23.3473 53.6106 22.845 52.6002C15.9708 38.7693 25.0939 22.0569 40.4915 20.1783C54.6447 18.4494 66.6239 29.107 66.324 43.17C66.0767 54.6883 56.2864 64.6199 44.7045 65.1364C40.7539 65.316 36.9907 64.6199 33.3774 62.9959C32.7477 62.7115 31.8857 62.6665 31.2035 62.8312C27.6427 63.6769 24.1194 64.6274 20.2812 65.6228ZM25.8136 60.2566C28.07 59.6728 29.9741 59.119 31.9156 58.7223C32.5453 58.5876 33.3624 58.6849 33.9247 58.9843C36.8183 60.4961 39.8618 61.3194 43.1302 61.3792C54.892 61.5888 64.36 50.6767 62.1261 39.2408C60.5743 31.3299 55.7092 26.1433 47.8455 24.347C39.7793 22.5059 32.9127 25.0955 28.0325 31.749C23.2648 38.2528 23.1374 45.2656 27.028 52.3532C27.3653 52.9744 27.4628 53.88 27.3129 54.5835C26.953 56.4097 26.3758 58.1984 25.8136 60.2566Z" fill="white"/>
<path d="M33.3721 33.4489C34.9238 31.3608 37.0078 31.7724 38.0948 34.0776C38.5221 34.9757 38.6195 35.2825 39.0393 36.3079C39.669 37.8571 39.5266 38.8974 38.4021 39.9003C37.585 40.6263 37.66 41.27 38.2297 42.1082C39.9914 44.7127 42.2703 46.6736 45.1564 47.9459C46.0335 48.3351 46.6107 48.2453 47.2554 47.4819C49.2569 45.0869 49.2869 45.1169 52.1205 46.4416C52.4503 46.5913 52.7727 46.7485 53.095 46.9056C55.269 47.9459 55.5988 49.8993 53.8297 51.6207C52.0231 53.3795 49.8341 53.7762 47.4428 53.17C41.3332 51.6207 36.9553 47.7813 33.5745 42.6471C32.5475 41.0828 31.7753 39.4213 31.8353 37.4904C32.0377 35.7166 32.525 34.5865 33.3721 33.4489Z" fill="white"/>
</svg>
